<svg width="48" height="60" viewBox="0 0 48 60" fill="none" xmlns="http://www.w3.org/2000/svg">
<g clip-path="url(#clip0_2502_26753)">
<path d="M4.43956 22.1498C6.82956 16.6698 20.5696 16.1498 45.6696 20.5898C43.6396 24.6798 41.6096 28.7798 39.5896 32.8698C44.0096 34.9498 45.5896 40.0898 43.7796 43.5598C41.8296 47.2998 36.0696 48.8398 31.8196 45.6798C32.1496 51.4598 27.6496 55.6798 23.7196 55.5198C19.6496 55.3498 15.3996 50.4398 16.5796 44.5298C12.2796 48.0798 6.22956 46.7298 4.13956 43.0798C2.25956 39.8098 3.53956 34.6498 7.79956 32.1798C4.49956 27.8898 3.37956 24.5498 4.42956 22.1498H4.43956Z" fill="#E6FFEB"/>
<path d="M45.6002 40.4299C45.2402 36.0599 44.4002 34.3399 41.2302 32.5299C44.4002 30.7099 45.2402 28.9999 45.6002 24.6299C45.9602 20.2599 48.0002 18.7899 48.0002 18.7899C48.0002 18.7899 45.7002 19.8099 41.7002 17.9299C37.7102 16.0499 35.7902 15.9099 32.6102 17.7299C29.8102 17.8999 27.0202 18.0699 24.2202 18.2399C21.2702 18.0699 18.3302 17.8999 15.3802 17.7299C12.2102 15.9099 10.2902 16.0499 6.29023 17.9299C2.30023 19.8099 -0.00976562 18.7899 -0.00976562 18.7899C-0.00976562 18.7899 2.03023 20.2599 2.39023 24.6299C2.75023 28.9999 3.59023 30.7199 6.76023 32.5299C3.59023 34.3499 2.75023 36.0599 2.39023 40.4299C2.03023 44.7999 -0.00976562 46.2699 -0.00976562 46.2699C-0.00976562 46.2699 2.29023 45.2499 6.29023 47.1299C10.2902 49.0099 12.2002 49.1499 15.3802 47.3299C15.3802 50.9599 16.4602 52.5399 20.1002 55.0299C23.7402 57.5199 24.0002 60.0099 24.0002 60.0099C24.0002 60.0099 24.2602 57.5199 27.9002 55.0299C31.5402 52.5399 32.6202 50.9599 32.6202 47.3299C35.7902 49.1499 37.7102 49.0099 41.7102 47.1299C45.7002 45.2499 48.0102 46.2699 48.0102 46.2699C48.0102 46.2699 45.9602 44.7999 45.6102 40.4399L45.6002 40.4299ZM24.0002 28.7799C26.0802 28.7799 27.7802 30.4599 27.7802 32.5199C27.7802 34.5799 26.0902 36.2599 24.0002 36.2599C21.9102 36.2599 20.2302 34.5799 20.2302 32.5199C20.2302 30.4599 21.9202 28.7799 24.0002 28.7799ZM41.7702 42.6999C40.6002 44.7099 38.6802 45.1299 37.2702 45.1299C36.0602 45.1299 34.9402 44.7999 34.3802 44.4799C33.0102 43.6999 31.6602 42.5699 31.0202 41.6599C30.0802 40.3399 29.2402 39.9099 28.5402 40.3099C27.8302 40.7199 27.8002 41.6599 28.4802 43.1199C28.9402 44.1199 29.2602 45.8499 29.2602 47.4099C29.2602 48.9699 27.7502 52.8699 24.0102 52.8699C21.9302 52.8699 20.6602 51.7099 19.9602 50.7299C19.1302 49.5699 18.7602 48.1999 18.7602 47.4099C18.7602 45.8499 19.0702 44.1199 19.5402 43.1199C20.2102 41.6699 20.1902 40.7199 19.4802 40.3099C19.3102 40.2099 19.1402 40.1699 18.9502 40.1699C18.3502 40.1699 17.7202 40.6599 17.0002 41.6599C16.3602 42.5599 15.0002 43.6899 13.6402 44.4799C13.0702 44.7999 11.9602 45.1299 10.7502 45.1299C9.34023 45.1299 7.42023 44.7099 6.25023 42.6999C5.21023 40.9099 5.59023 39.2399 6.10023 38.1599C6.70023 36.8699 7.71023 35.8599 8.40023 35.4699C9.77023 34.6899 11.4302 34.0899 12.5402 33.9899C14.1502 33.8399 14.9602 33.3499 14.9602 32.5299C14.9602 31.7099 14.1502 31.2199 12.5402 31.0699C11.4302 30.9699 9.77023 30.3699 8.40023 29.5899C7.71023 29.1999 6.70023 28.1899 6.10023 26.8999C5.60023 25.8099 5.21023 24.1399 6.25023 22.3599C7.42023 20.3499 9.34023 19.9299 10.7502 19.9299C11.9602 19.9299 13.0802 20.2599 13.6402 20.5799C15.0102 21.3599 16.3602 22.4899 17.0002 23.3999C17.2602 23.7699 20.3702 28.0699 20.2002 28.0799C19.4702 28.1599 18.7202 27.8999 17.9602 27.3199C17.4902 26.9599 17.1002 26.5999 16.6802 26.2099C15.9402 25.5199 15.1802 24.8099 13.8902 24.0699C13.1702 23.6599 12.5002 23.4499 11.8902 23.4499C11.0802 23.4499 10.3602 23.8399 9.98023 24.4999C9.69023 24.9999 9.62023 25.5999 9.80023 26.1599C10.0202 26.8899 10.6202 27.5299 11.5702 28.0699C12.8602 28.8099 13.8702 29.1099 14.8402 29.3999C15.3802 29.5599 15.9002 29.7099 16.4502 29.9399C17.3602 30.3099 18.4502 31.0699 18.4502 32.5399C18.4502 34.0099 17.3602 34.7599 16.4502 35.1399C15.9002 35.3599 15.3902 35.5199 14.8402 35.6799C13.8702 35.9699 12.8602 36.2699 11.5702 37.0099C10.6202 37.5499 10.0302 38.1899 9.80023 38.9199C9.63023 39.4799 9.69023 40.0899 9.98023 40.5799C10.3602 41.2399 11.0802 41.6299 11.8902 41.6299C12.5002 41.6299 13.1802 41.4199 13.8902 41.0099C15.1802 40.2699 15.9502 39.5599 16.6802 38.8699C17.0902 38.4799 17.4802 38.1199 17.9602 37.7599C19.0802 36.8999 20.2002 36.7499 21.2302 37.3399C22.2602 37.9299 22.6902 38.9399 22.5002 40.3599C22.4202 40.9399 22.3002 41.4599 22.1702 42.0099C21.9402 42.9899 21.6902 43.9999 21.6902 45.4799C21.6902 47.7999 22.9502 48.6299 24.0202 48.6299C25.0902 48.6299 26.3502 47.8099 26.3502 45.4799C26.3502 43.9999 26.1102 42.9899 25.8702 42.0099C25.7402 41.4599 25.6202 40.9399 25.5402 40.3599C25.3502 38.9499 25.7802 37.9299 26.8102 37.3399C27.8302 36.7499 28.9602 36.8999 30.0802 37.7599C30.5502 38.1199 30.9402 38.4799 31.3602 38.8699C32.1002 39.5599 32.8602 40.2699 34.1502 41.0099C34.8702 41.4199 35.5402 41.6299 36.1502 41.6299C36.9602 41.6299 37.6802 41.2399 38.0602 40.5799C38.3502 40.0799 38.4202 39.4799 38.2402 38.9199C38.0202 38.1899 37.4202 37.5499 36.4802 37.0099C35.1902 36.2699 34.1802 35.9699 33.2102 35.6799C32.6702 35.5199 32.1502 35.3699 31.6002 35.1399C30.6902 34.7699 29.6002 34.0099 29.6002 32.5399C29.6002 31.0699 30.6902 30.3199 31.6002 29.9399C32.1502 29.7099 32.6602 29.5599 33.2102 29.3999C34.1802 29.1099 35.1902 28.8099 36.4802 28.0699C37.4302 27.5299 38.0202 26.8899 38.2402 26.1599C38.4102 25.5999 38.3502 24.9899 38.0602 24.4999C37.6802 23.8399 36.9602 23.4499 36.1502 23.4499C35.5402 23.4499 34.8602 23.6599 34.1502 24.0699C32.8602 24.8099 32.0902 25.5199 31.3602 26.2099C30.9502 26.5999 30.5602 26.9599 30.0802 27.3199C28.9602 28.1799 27.8402 28.3299 26.8102 27.7399C26.6402 27.6399 30.3602 24.3399 31.0402 23.3999C31.6802 22.4999 33.0402 21.3699 34.4002 20.5799C34.9702 20.2599 36.0802 19.9299 37.2902 19.9299C38.7002 19.9299 40.6202 20.3499 41.7902 22.3599C42.8302 24.1499 42.4502 25.8199 41.9402 26.8999C41.3402 28.1899 40.3302 29.1999 39.6402 29.5899C38.2702 30.3699 36.6102 30.9699 35.5002 31.0699C33.8902 31.2199 33.0802 31.7099 33.0802 32.5299C33.0802 33.3499 33.8902 33.8399 35.5002 33.9899C36.6102 34.0899 38.2702 34.6899 39.6402 35.4699C40.3302 35.8599 41.3402 36.8699 41.9402 38.1599C42.4402 39.2499 42.8302 40.9199 41.7902 42.6999H41.7702Z" fill="#A481C4"/>
<path d="M23.9998 8.24023C21.6998 8.24023 19.8398 10.0902 19.8398 12.3602C19.8398 14.6302 21.6998 16.4802 23.9998 16.4802C26.2998 16.4802 28.1598 14.6302 28.1598 12.3602C28.1598 10.0902 26.2998 8.24023 23.9998 8.24023Z" fill="#BCF0C6"/>
<path d="M24.0003 0C17.1103 0 11.5303 5.54 11.5303 12.36C11.5303 13.49 11.7503 14.66 11.7503 14.66C12.2003 16.94 13.2103 18.6 13.9003 19.54C16.6903 23.71 19.4803 27.88 22.2703 32.05C22.6603 32.62 23.3103 32.97 24.0003 32.97C24.6903 32.97 25.3403 32.63 25.7303 32.05C27.2803 29.75 29.3203 26.88 29.9103 25.81C30.9603 23.91 30.8103 24.65 34.1103 19.54C34.8803 18.34 35.8303 16.84 36.2603 14.66C36.2603 14.66 36.4803 13.5 36.4803 12.36C36.4803 5.53 30.9003 0 24.0103 0L24.0003 0ZM24.0003 16.48C21.7003 16.48 19.8403 14.63 19.8403 12.36C19.8403 10.09 21.7003 8.24 24.0003 8.24C26.3003 8.24 28.1603 10.09 28.1603 12.36C28.1603 14.63 26.3003 16.48 24.0003 16.48Z" fill="#013D79"/>
</g>
<defs>
<clipPath id="clip0_2502_26753">
<rect width="48" height="60" fill="white"/>
</clipPath>
</defs>
</svg>
