<svg width="48" height="60" viewBox="0 0 48 60" fill="none" xmlns="http://www.w3.org/2000/svg">
<path d="M28.5713 24.6625C28.7854 24.4797 29.0062 24.2749 29.2869 24.0129L29.3158 23.9859C30.0769 23.2753 31.0475 22.369 32.6381 21.459L28.5713 24.6625ZM28.5713 24.6625C28.6225 24.3997 28.6883 24.1192 28.7721 23.7672L28.5713 24.6625ZM13.9536 32.2678L13.9231 32.2587C12.9197 31.9605 11.6426 31.5808 10.0494 30.6688L13.9536 32.2678ZM13.9536 32.2678C13.954 32.2679 13.9543 32.268 13.9547 32.2681C14.2853 32.3666 14.5507 32.4462 14.7928 32.5276M13.9536 32.2678L14.7928 32.5276M14.7928 32.5276C14.5491 32.6098 14.2833 32.6897 13.9562 32.7868L13.9547 32.7872L13.9275 32.7953C12.9225 33.0941 11.6451 33.4738 10.0505 34.3859L14.7928 32.5276ZM28.5709 40.3916C28.6218 40.6534 28.6877 40.9337 28.772 41.2878C28.7721 41.2879 28.7721 41.288 28.7721 41.2881C28.7723 41.2887 28.7724 41.2894 28.7726 41.29L28.7776 41.3109C29.0201 42.3259 29.3291 43.6189 29.3293 45.4545L28.5709 40.3916ZM28.5709 40.3916C28.7847 40.574 29.0053 40.7788 29.2855 41.0406L29.2858 41.0409L29.3099 41.0634C30.0731 41.7766 31.0442 42.6839 32.6381 43.5959C33.6558 44.1783 34.845 44.6118 36.1324 44.6118C37.9209 44.6118 39.6692 43.7297 40.6339 42.0746L40.6349 42.0729C41.3556 40.8344 41.5056 39.3575 41.0903 38.0148L41.0901 38.0142C40.5598 36.3007 39.272 35.1431 37.9506 34.387C37.9501 34.3868 37.9497 34.3865 37.9493 34.3863L36.4597 36.9904M28.5709 40.3916L34.0473 32.7881M36.4597 36.9904C35.1707 36.2522 34.1666 35.9535 33.1965 35.6649L33.1895 35.6628L34.0473 32.7881M36.4597 36.9904C37.4056 37.5314 37.9994 38.1746 38.2243 38.9012L36.4597 36.9904ZM34.0473 32.7881C34.0471 32.788 34.0468 32.7879 34.0465 32.7878M34.0473 32.7881L34.0465 32.7878M34.0465 32.7878C33.7151 32.689 33.4492 32.6091 33.2068 32.5275C33.4494 32.4456 33.7148 32.366 34.0429 32.2686L34.0444 32.2681L34.0717 32.26C35.0769 31.9612 36.3545 31.5814 37.9494 30.669L37.9504 30.6685C39.2713 29.9121 40.5597 28.7546 41.0901 27.0407L41.0906 27.0392C41.5051 25.6975 41.3562 24.2204 40.6344 22.9812L34.0465 32.7878ZM7.36376 22.9819L7.36475 22.9802C8.32942 21.3251 10.0777 20.443 11.8662 20.443C13.1534 20.443 14.3424 20.8764 15.3599 21.4587L7.36376 22.9819ZM7.36376 22.9819C6.64302 24.2204 6.49305 25.6973 6.90828 27.04L6.90849 27.0407M7.36376 22.9819L6.90849 27.0407M6.90849 27.0407C7.43897 28.7546 8.72734 29.9122 10.0489 30.6686L6.90849 27.0407ZM36.1324 20.443C37.9205 20.443 39.669 21.3239 40.6341 22.9807L36.1324 20.443ZM36.1324 20.443C34.8453 20.443 33.6563 20.8764 32.6387 21.4587L36.1324 20.443ZM20.2041 15.1449C19.1341 16.3293 18.668 17.9032 18.6683 19.5995L28.7726 23.7654L28.7779 23.7429C29.0204 22.7277 29.3293 21.4346 29.3293 19.5995C29.3293 17.9037 28.8636 16.3299 27.794 15.1454C26.7238 13.9603 25.3027 13.4536 23.999 13.4536C22.6957 13.4536 21.2745 13.9601 20.2041 15.1449ZM19.427 24.6628C19.214 24.4811 18.994 24.2767 18.7131 24.0142L18.7128 24.0139L18.6887 23.9914C17.9255 23.2783 16.9544 22.3709 15.3605 21.459L19.427 24.6628ZM6.9078 38.0164C6.49369 39.358 6.64234 40.8343 7.36421 42.0737L10.0498 34.3864C8.72732 35.1425 7.43896 36.3002 6.90848 38.0142L6.9078 38.0164ZM7.36447 42.0741C8.32959 43.731 10.0782 44.6118 11.8662 44.6118C13.1546 44.6118 14.3437 44.1771 15.359 43.5967L15.3599 43.5962C16.9508 42.686 17.9216 41.7796 18.6828 41.069L18.712 41.0417L18.7131 41.0406C18.9929 40.7792 19.2132 40.5747 19.427 40.3923C19.376 40.6538 19.3101 40.9339 19.2255 41.2879L19.2251 41.2893L19.2177 41.3206C18.9764 42.3323 18.6683 43.6247 18.6683 45.4559C18.6683 47.152 19.1343 48.7259 20.2044 49.9103C21.2749 51.0951 22.6961 51.6012 23.999 51.6012C25.3018 51.6012 26.7232 51.0953 27.7938 49.9103C28.8639 48.7259 29.3298 47.152 29.3293 45.4559L7.36447 42.0741ZM19.5146 39.623C19.5143 39.6219 19.5143 39.6214 19.5143 39.6214L19.5146 39.623ZM28.4837 39.6205C28.4837 39.6205 28.4836 39.6211 28.4834 39.6221L28.4837 39.6205ZM28.4841 25.433C28.4841 25.433 28.4839 25.4324 28.4837 25.4312L28.4841 25.433ZM23.9996 33.2697C23.5506 33.2697 23.2246 32.9094 23.2246 32.5272C23.2246 32.1447 23.5503 31.7846 23.9996 31.7846C24.4488 31.7846 24.7746 32.1447 24.7746 32.5272C24.7746 32.9094 24.4486 33.2697 23.9996 33.2697Z" stroke="#E6FFEB" stroke-width="6"/>
<path d="M36.4592 36.9904C35.1671 36.2504 34.1614 35.9521 33.189 35.6629C32.6443 35.5003 32.1309 35.348 31.582 35.1234C30.669 34.7502 29.5807 33.9964 29.5807 32.5277C29.5807 31.0585 30.669 30.3052 31.582 29.932C32.1315 29.7069 32.6449 29.554 33.189 29.3926C34.1619 29.1033 35.1677 28.8039 36.4592 28.065C37.4051 27.5234 37.9989 26.8803 38.2238 26.1537C38.3969 25.5934 38.3306 24.9871 38.0415 24.4909C37.6591 23.8344 36.9457 23.443 36.1319 23.443C35.5203 23.443 34.8462 23.6515 34.1279 24.0627C32.8363 24.8016 32.0727 25.5159 31.3334 26.2061C30.9192 26.5926 30.5287 26.9573 30.0579 27.3171C28.9341 28.1736 27.814 28.3233 26.7888 27.7373C25.7593 27.1476 25.3327 26.1328 25.5215 24.7208C25.6002 24.1365 25.7232 23.6184 25.8537 23.0704C26.0877 22.0904 26.3288 21.0778 26.3288 19.5995C26.3288 17.2781 25.0739 16.4536 23.9986 16.4536C22.9232 16.4536 21.6672 17.2781 21.6678 19.5995C21.6678 21.0778 21.9094 22.0904 22.1429 23.0704C22.2739 23.6184 22.3974 24.1365 22.4756 24.7208C22.6649 26.1328 22.2389 27.1476 21.2083 27.7373C20.1837 28.3233 19.0636 28.1736 17.9397 27.3171C17.4684 26.9578 17.0779 26.5926 16.6643 26.2061C15.9249 25.5153 15.1613 24.8016 13.8697 24.0627C13.1514 23.6515 12.4773 23.443 11.8658 23.443C11.0525 23.443 10.3385 23.8349 9.95616 24.4909C9.6671 24.9876 9.60077 25.5939 9.77388 26.1537C9.99876 26.8803 10.5925 27.5234 11.539 28.065C12.8305 28.8044 13.8363 29.1033 14.8092 29.3926C15.3533 29.5546 15.8672 29.7069 16.4168 29.932C17.3298 30.3052 18.4175 31.059 18.4181 32.5277C18.4181 33.9969 17.3298 34.7502 16.4168 35.1234C15.8672 35.348 15.3533 35.5014 14.8092 35.6629C13.8363 35.9521 12.8305 36.2515 11.539 36.9904C10.5925 37.5314 9.99876 38.1746 9.77388 38.9012C9.60077 39.462 9.6671 40.0678 9.95616 40.5639C10.3385 41.2205 11.052 41.6118 11.8658 41.6118C12.4773 41.6118 13.1514 41.4028 13.8697 40.9922C15.1613 40.2533 15.9249 39.539 16.6643 38.8488C17.0779 38.4623 17.4684 38.0976 17.9397 37.7378C19.0625 36.8802 20.1831 36.73 21.2083 37.3176C22.2383 37.9073 22.6649 38.9221 22.4756 40.334C22.3974 40.9189 22.2739 41.4365 22.1429 41.985C21.9094 42.9645 21.6678 43.9776 21.6678 45.4559C21.6678 47.7774 22.9232 48.6012 23.9986 48.6012C25.0739 48.6012 26.3299 47.7774 26.3288 45.4559C26.3288 43.9771 26.0877 42.9645 25.8537 41.985C25.7232 41.437 25.5997 40.9189 25.5215 40.334C25.3322 38.9221 25.7577 37.9073 26.7888 37.3176C27.8134 36.7311 28.9346 36.8819 30.0579 37.7378C30.5287 38.0971 30.9197 38.4623 31.3334 38.8488C32.0727 39.5396 32.8363 40.2533 34.1279 40.9922C34.8462 41.4033 35.5203 41.6118 36.1319 41.6118C36.9451 41.6118 37.6591 41.22 38.0415 40.5639C38.3306 40.0673 38.3969 39.461 38.2238 38.9012C37.9989 38.1746 37.4051 37.5314 36.4592 36.9904ZM23.9991 36.2697C21.918 36.2697 20.2241 34.5909 20.2241 32.5272C20.2241 30.4634 21.9175 28.7847 23.9991 28.7847C26.0807 28.7847 27.7741 30.4634 27.7741 32.5272C27.7741 34.5909 26.0802 36.2697 23.9991 36.2697Z" fill="#A481C4"/>
<path d="M45.5975 40.4284C45.241 36.0604 44.4019 34.3426 41.2288 32.5274C44.4014 30.7118 45.2405 28.9945 45.5975 24.6265C45.954 20.259 47.9989 18.7908 47.9989 18.7908C47.9989 18.7908 45.6951 19.8125 41.7006 17.9343C37.7067 16.0561 35.7874 15.9182 32.6137 17.7344C32.6137 14.1025 31.5341 12.5227 27.8961 10.0334C24.2591 7.54352 23.9997 5.05422 23.9997 5.05422C23.9997 5.05422 23.7403 7.54352 20.1023 10.0328C16.4649 12.5227 15.3847 14.102 15.3847 17.7338C12.2121 15.9177 10.2922 16.0556 6.29829 17.9338C2.30436 19.812 0 18.7903 0 18.7903C0 18.7903 2.04496 20.2579 2.40089 24.6259C2.75736 28.994 3.59702 30.7113 6.76963 32.5269C3.59702 34.3426 2.75736 36.0598 2.40089 40.4279C2.04442 44.7959 0 46.263 0 46.263C0 46.263 2.30436 45.2418 6.29829 47.12C10.2922 48.9982 12.2115 49.1362 15.3847 47.32C15.3847 50.9518 16.4649 52.5317 20.1023 55.0215C23.7398 57.5114 23.9997 60.0001 23.9997 60.0001C23.9997 60.0001 24.2591 57.5114 27.8977 55.0215C31.5346 52.5317 32.6153 50.9523 32.6153 47.32C35.7879 49.1356 37.7072 48.9982 41.7017 47.12C45.6951 45.2423 48 46.263 48 46.263C48 46.263 45.954 44.7965 45.5975 40.4284ZM41.768 42.6974C40.5978 44.7077 38.6763 45.1295 37.2704 45.1295C36.0592 45.1295 34.945 44.8018 34.3772 44.4767C33.0106 43.6946 31.6592 42.5627 31.0147 41.6602C30.0737 40.3429 29.2324 39.9103 28.5324 40.3103C27.8179 40.7198 27.7968 41.6634 28.4709 43.1171C28.9358 44.1207 29.2486 45.8465 29.2486 47.4114C29.2486 49.0169 27.738 52.8669 23.9997 52.8674C21.9186 52.8674 20.6502 51.7035 19.9529 50.7267C19.1268 49.5703 18.7509 48.1984 18.7509 47.4114C18.7509 45.8465 19.0637 44.1207 19.5291 43.1171C20.2032 41.6634 20.1821 40.7203 19.4676 40.3103C19.3015 40.2151 19.123 40.167 18.938 40.167C18.3421 40.167 17.7036 40.6556 16.9858 41.6602C16.3414 42.5627 14.9899 43.6946 13.6234 44.4767C13.0555 44.8013 11.9408 45.1295 10.7301 45.1295C9.32421 45.1295 7.40274 44.7077 6.2325 42.6974C5.19168 40.9107 5.57403 39.2399 6.07826 38.153C6.67525 36.8655 7.68641 35.8556 8.37345 35.4626C9.74054 34.6799 11.4048 34.0854 12.5146 33.9833C14.1206 33.8352 14.9349 33.3444 14.9349 32.5264C14.9349 31.7084 14.1206 31.2186 12.5146 31.07C11.4048 30.9679 9.74054 30.3734 8.37345 29.5906C7.68695 29.1977 6.67579 28.1877 6.07826 26.9003C5.57403 25.8134 5.19114 24.1421 6.2325 22.3558C7.40274 20.3456 9.32421 19.9237 10.7301 19.9237C11.9408 19.9237 13.0555 20.2515 13.6234 20.5765C14.9899 21.3582 16.3414 22.49 16.9858 23.3925C17.9269 24.7099 18.7692 25.1435 19.4681 24.7425C20.1827 24.3335 20.2037 23.3893 19.5296 21.9361C19.0642 20.9326 18.7514 19.2062 18.7514 17.6413C18.7514 16.0358 20.262 12.1853 24.0019 12.1853C27.7407 12.1853 29.2507 16.0358 29.2507 17.6413C29.2507 19.2062 28.938 20.9326 28.4725 21.9361C27.7984 23.3893 27.8195 24.333 28.534 24.7425C29.234 25.1435 30.0742 24.7099 31.0163 23.3925C31.6608 22.49 33.0122 21.3587 34.3788 20.5765C34.9466 20.2515 36.0613 19.9237 37.2715 19.9237C38.6774 19.9237 40.5989 20.3456 41.7697 22.3558C42.8105 24.1426 42.4281 25.8134 41.9239 26.9003C41.3269 28.1877 40.3157 29.1971 39.6287 29.5906C38.2616 30.3734 36.5974 30.9679 35.487 31.07C33.8789 31.2192 33.0656 31.7089 33.0656 32.5269C33.0656 33.3449 33.8789 33.8346 35.4848 33.9833C36.5952 34.0854 38.2595 34.6799 39.6265 35.4632C40.3125 35.8556 41.3237 36.8661 41.9217 38.153C42.426 39.2399 42.8089 40.9107 41.768 42.6974Z" fill="#A481C4"/>
<path d="M19 8H29V17H19V8Z" fill="#BCF0C6"/>
<path d="M23.9993 0C17.1127 0 11.5293 5.5354 11.5293 12.3627C11.5293 15.0511 12.4183 17.518 13.896 19.5382C13.9225 19.5867 13.9267 19.6407 13.9568 19.6871L22.2701 32.0498C22.6556 32.6231 23.3051 32.9672 23.9993 32.9672C24.6934 32.9672 25.3429 32.6231 25.7285 32.0498L34.0418 19.6871C34.0724 19.6407 34.0761 19.5867 34.1026 19.5382C35.5803 17.518 36.4693 15.0511 36.4693 12.3627C36.4693 5.5354 30.8858 0 23.9993 0ZM23.9993 16.4836C21.7038 16.4836 19.8426 14.6385 19.8426 12.3627C19.8426 10.0869 21.7038 8.24181 23.9993 8.24181C26.2948 8.24181 28.1559 10.0869 28.1559 12.3627C28.1559 14.6385 26.2948 16.4836 23.9993 16.4836Z" fill="#013D79"/>
</svg>
